<svg xmlns="http://www.w3.org/2000/svg" width="800" height="470" viewBox="0 0 800 470" role="img" aria-labelledby="title desc">
  <title id="title">mightyalok00 code language distribution</title>
  <desc id="desc">Pie chart generated from 15 active, non-fork public repositories using GitHub language byte totals.</desc>
  <style>
    .bg { fill: #ffffff; }
    .heading { fill: #111827; font: 700 24px -apple-system, BlinkMacSystemFont, "Segoe UI", sans-serif; }
    .subheading { fill: #6b7280; font: 14px -apple-system, BlinkMacSystemFont, "Segoe UI", sans-serif; }
    .label { fill: #374151; font: 600 15px -apple-system, BlinkMacSystemFont, "Segoe UI", sans-serif; }
    .value { fill: #111827; font: 700 15px -apple-system, BlinkMacSystemFont, "Segoe UI", sans-serif; }
    .track, .grid { fill: #e5e7eb; stroke: #e5e7eb; }
    @media (prefers-color-scheme: dark) {
      .bg { fill: #0d1117; } .heading, .value { fill: #f0f6fc; }
      .subheading { fill: #8b949e; } .label { fill: #c9d1d9; }
      .track, .grid { fill: #30363d; stroke: #30363d; }
    }
  </style>
  <rect class="bg" width="800" height="470" rx="16"/>
  <text x="40" y="46" class="heading">Code Language Distribution</text>
  <text x="40" y="71" class="subheading">GitHub-detected bytes across active, non-fork public repositories</text>
  <path d="M 205.000 230.000 L 205.000 85.000 A 145 145 0 1 1 73.338 169.254 Z" fill="#DA5B0B"><title>Jupyter Notebook: 81.9% (5,151,456 bytes)</title></path><path d="M 205.000 230.000 L 73.338 169.254 A 145 145 0 0 1 139.288 100.745 Z" fill="#3178C6"><title>TypeScript: 10.6% (669,062 bytes)</title></path><path d="M 205.000 230.000 L 139.288 100.745 A 145 145 0 0 1 199.482 85.105 Z" fill="#3572A5"><title>Python: 6.9% (432,846 bytes)</title></path><path d="M 205.000 230.000 L 199.482 85.105 A 145 145 0 0 1 201.560 85.041 Z" fill="#563D7C"><title>CSS: 0.2% (14,359 bytes)</title></path><path d="M 205.000 230.000 L 201.560 85.041 A 145 145 0 0 1 203.249 85.011 Z" fill="#E34C26"><title>HTML: 0.2% (11,664 bytes)</title></path><path d="M 205.000 230.000 L 203.249 85.011 A 145 145 0 0 1 204.885 85.000 Z" fill="#F1E05A"><title>JavaScript: 0.2% (11,295 bytes)</title></path><path d="M 205.000 230.000 L 204.885 85.000 A 145 145 0 0 1 204.977 85.000 Z" fill="#14B8A6"><title>Dockerfile: 0.0% (635 bytes)</title></path><path d="M 205.000 230.000 L 204.977 85.000 A 145 145 0 0 1 205.000 85.000 Z" fill="#F97316"><title>Batchfile: 0.0% (162 bytes)</title></path>
  <rect x="410" y="101" width="18" height="18" rx="4" fill="#DA5B0B"/><text x="442" y="115" class="label">Jupyter Notebook</text><text x="745" y="115" class="value" text-anchor="end">81.9%</text><rect x="410" y="140" width="18" height="18" rx="4" fill="#3178C6"/><text x="442" y="154" class="label">TypeScript</text><text x="745" y="154" class="value" text-anchor="end">10.6%</text><rect x="410" y="179" width="18" height="18" rx="4" fill="#3572A5"/><text x="442" y="193" class="label">Python</text><text x="745" y="193" class="value" text-anchor="end">6.9%</text><rect x="410" y="218" width="18" height="18" rx="4" fill="#563D7C"/><text x="442" y="232" class="label">CSS</text><text x="745" y="232" class="value" text-anchor="end">0.2%</text><rect x="410" y="257" width="18" height="18" rx="4" fill="#E34C26"/><text x="442" y="271" class="label">HTML</text><text x="745" y="271" class="value" text-anchor="end">0.2%</text><rect x="410" y="296" width="18" height="18" rx="4" fill="#F1E05A"/><text x="442" y="310" class="label">JavaScript</text><text x="745" y="310" class="value" text-anchor="end">0.2%</text><rect x="410" y="335" width="18" height="18" rx="4" fill="#14B8A6"/><text x="442" y="349" class="label">Dockerfile</text><text x="745" y="349" class="value" text-anchor="end">0.0%</text><rect x="410" y="374" width="18" height="18" rx="4" fill="#F97316"/><text x="442" y="388" class="label">Batchfile</text><text x="745" y="388" class="value" text-anchor="end">0.0%</text>
</svg>
